<svg xmlns="http://www.w3.org/2000/svg" xmlns:xlink="http://www.w3.org/1999/xlink" width="500" zoomAndPan="magnify" viewBox="0 0 375 123.750003" height="165" preserveAspectRatio="xMidYMid meet" version="1.0"><defs><g/><clipPath id="4e93ff4de3"><path d="M 4.121094 19 L 25 19 L 25 42 L 4.121094 42 Z M 4.121094 19 " clip-rule="nonzero"/></clipPath><clipPath id="dbb6e8c00f"><path d="M 71 103 L 93 103 L 93 123.5 L 71 123.5 Z M 71 103 " clip-rule="nonzero"/></clipPath><clipPath id="2c761573e9"><path d="M 120 38 L 128.480469 38 L 128.480469 48 L 120 48 Z M 120 38 " clip-rule="nonzero"/></clipPath><clipPath id="f00ed2f6e7"><path d="M 243 26 L 374.621094 26 L 374.621094 96 L 243 96 Z M 243 26 " clip-rule="nonzero"/></clipPath></defs><path fill="#f4ce14" d="M 88.445312 89.253906 L 23.457031 89.253906 L 23.457031 40.457031 L 88.445312 40.457031 C 93.691406 40.457031 97.9375 44.703125 97.9375 49.949219 L 97.9375 79.765625 C 97.9375 85.007812 93.691406 89.253906 88.445312 89.253906 Z M 88.445312 89.253906 " fill-opacity="1" fill-rule="nonzero"/><path fill="#ffffff" d="M 50.464844 90.28125 L 22.429688 90.28125 L 22.429688 39.429688 L 54.558594 39.429688 C 55.121094 39.429688 55.582031 39.886719 55.582031 40.457031 C 55.582031 41.019531 55.125 41.480469 54.558594 41.480469 L 24.476562 41.480469 L 24.476562 88.238281 L 50.464844 88.238281 C 51.03125 88.238281 51.492188 88.695312 51.492188 89.261719 C 51.488281 89.820312 51.03125 90.28125 50.464844 90.28125 Z M 50.464844 90.28125 " fill-opacity="1" fill-rule="nonzero"/><path fill="#ffffff" d="M 93.410156 90.28125 L 54.558594 90.28125 C 53.996094 90.28125 53.535156 89.820312 53.535156 89.253906 C 53.535156 88.691406 53.992188 88.230469 54.558594 88.230469 L 93.410156 88.230469 C 93.972656 88.230469 94.4375 88.6875 94.4375 89.253906 C 94.433594 89.820312 93.972656 90.28125 93.410156 90.28125 Z M 93.410156 90.28125 " fill-opacity="1" fill-rule="nonzero"/><path fill="#ffffff" d="M 97.9375 85.746094 C 97.375 85.746094 96.914062 85.289062 96.914062 84.722656 L 96.914062 44.984375 C 96.914062 43.050781 95.339844 41.476562 93.40625 41.476562 L 84.460938 41.476562 C 83.898438 41.476562 83.4375 41.019531 83.4375 40.453125 C 83.4375 39.886719 83.894531 39.425781 84.460938 39.425781 L 93.40625 39.425781 C 96.472656 39.425781 98.960938 41.921875 98.960938 44.980469 L 98.960938 84.722656 C 98.964844 85.289062 98.507812 85.746094 97.9375 85.746094 Z M 97.9375 85.746094 " fill-opacity="1" fill-rule="nonzero"/><path fill="#ffffff" d="M 77.273438 41.476562 L 61.796875 41.476562 C 61.230469 41.476562 60.769531 41.019531 60.769531 40.453125 C 60.769531 39.886719 61.226562 39.425781 61.796875 39.425781 L 77.273438 39.425781 C 77.835938 39.425781 78.300781 39.886719 78.300781 40.453125 C 78.296875 41.019531 77.835938 41.476562 77.273438 41.476562 Z M 77.273438 41.476562 " fill-opacity="1" fill-rule="nonzero"/><g clip-path="url(#4e93ff4de3)"><path fill="#ffffff" d="M 23.457031 41.476562 C 22.890625 41.476562 22.429688 41.019531 22.429688 40.453125 L 22.429688 21.855469 L 5.144531 21.855469 C 4.578125 21.855469 4.121094 21.398438 4.121094 20.828125 C 4.121094 20.265625 4.578125 19.804688 5.144531 19.804688 L 24.480469 19.804688 L 24.480469 40.453125 C 24.476562 41.019531 24.019531 41.476562 23.457031 41.476562 Z M 23.457031 41.476562 " fill-opacity="1" fill-rule="nonzero"/></g><path fill="#ffffff" d="M 106.945312 100.046875 L 102.121094 100.046875 C 101.558594 100.046875 101.097656 99.585938 101.097656 99.019531 C 101.097656 98.453125 101.554688 97.996094 102.121094 97.996094 L 106.945312 97.996094 C 107.507812 97.996094 107.96875 98.453125 107.96875 99.019531 C 107.96875 99.585938 107.507812 100.046875 106.945312 100.046875 Z M 106.945312 100.046875 " fill-opacity="1" fill-rule="nonzero"/><path fill="#ffffff" d="M 93.410156 100.046875 L 77.273438 100.046875 C 76.710938 100.046875 76.25 99.585938 76.25 99.019531 C 76.25 98.453125 76.707031 97.996094 77.273438 97.996094 L 93.410156 97.996094 C 93.972656 97.996094 94.4375 98.453125 94.4375 99.019531 C 94.4375 99.585938 93.972656 100.046875 93.410156 100.046875 Z M 93.410156 100.046875 " fill-opacity="1" fill-rule="nonzero"/><path fill="#ffffff" d="M 69.53125 100.046875 L 14.683594 100.046875 L 22.617188 88.671875 C 22.941406 88.207031 23.574219 88.09375 24.039062 88.417969 C 24.507812 88.742188 24.617188 89.378906 24.296875 89.84375 L 18.605469 98 L 69.535156 98 C 70.101562 98 70.5625 98.457031 70.5625 99.023438 C 70.5625 99.589844 70.101562 100.046875 69.53125 100.046875 Z M 69.53125 100.046875 " fill-opacity="1" fill-rule="nonzero"/><path fill="#f4ce14" d="M 34.109375 102.695312 C 36.628906 102.695312 38.921875 103.679688 40.621094 105.285156 C 41.0625 105.699219 41.457031 106.15625 41.808594 106.648438 C 41.980469 106.886719 42.140625 107.132812 42.285156 107.382812 C 43.109375 108.789062 43.582031 110.425781 43.582031 112.171875 C 43.582031 117.40625 39.339844 121.652344 34.105469 121.652344 C 28.871094 121.652344 24.628906 117.40625 24.628906 112.171875 C 24.628906 108.277344 26.980469 104.925781 30.347656 103.472656 " fill-opacity="1" fill-rule="nonzero"/><path fill="#ffffff" d="M 34.109375 122.671875 C 28.320312 122.671875 23.609375 117.964844 23.609375 112.171875 C 23.609375 107.984375 26.09375 104.199219 29.9375 102.53125 C 30.460938 102.304688 31.058594 102.546875 31.285156 103.0625 C 31.507812 103.582031 31.269531 104.179688 30.753906 104.40625 C 27.65625 105.746094 25.65625 108.792969 25.65625 112.167969 C 25.65625 116.832031 29.449219 120.625 34.109375 120.625 C 38.765625 120.625 42.5625 116.828125 42.5625 112.167969 C 42.5625 111.605469 43.019531 111.144531 43.585938 111.144531 C 44.148438 111.144531 44.613281 111.601562 44.613281 112.167969 C 44.609375 117.964844 39.898438 122.671875 34.109375 122.671875 Z M 34.109375 122.671875 " fill-opacity="1" fill-rule="nonzero"/><path fill="#f4ce14" d="M 81.683594 103.46875 C 84.203125 103.46875 86.5 104.453125 88.195312 106.058594 C 88.636719 106.472656 89.03125 106.929688 89.382812 107.421875 C 89.554688 107.660156 89.714844 107.90625 89.859375 108.15625 C 90.683594 109.5625 91.15625 111.199219 91.15625 112.949219 C 91.15625 118.179688 86.914062 122.425781 81.679688 122.425781 C 76.445312 122.425781 72.199219 118.179688 72.199219 112.949219 C 72.199219 109.050781 74.550781 105.699219 77.917969 104.246094 " fill-opacity="1" fill-rule="nonzero"/><g clip-path="url(#dbb6e8c00f)"><path fill="#ffffff" d="M 81.683594 123.449219 C 75.894531 123.449219 71.183594 118.742188 71.183594 112.949219 C 71.183594 108.761719 73.667969 104.976562 77.515625 103.308594 C 78.035156 103.082031 78.632812 103.324219 78.859375 103.839844 C 79.082031 104.359375 78.84375 104.960938 78.328125 105.183594 C 75.230469 106.527344 73.230469 109.570312 73.230469 112.949219 C 73.230469 117.609375 77.023438 121.402344 81.683594 121.402344 C 86.34375 121.402344 90.136719 117.605469 90.136719 112.949219 C 90.136719 112.382812 90.59375 111.921875 91.160156 111.921875 C 91.726562 111.921875 92.1875 112.378906 92.1875 112.949219 C 92.1875 118.738281 87.476562 123.449219 81.683594 123.449219 Z M 81.683594 123.449219 " fill-opacity="1" fill-rule="nonzero"/></g><path fill="#ffffff" d="M 42.289062 108.40625 C 41.9375 108.40625 41.59375 108.222656 41.40625 107.898438 C 41.273438 107.675781 41.128906 107.457031 40.980469 107.246094 C 40.667969 106.808594 40.308594 106.398438 39.917969 106.03125 C 38.34375 104.542969 36.28125 103.71875 34.113281 103.71875 C 33.546875 103.71875 33.085938 103.261719 33.085938 102.695312 C 33.085938 102.132812 33.542969 101.667969 34.113281 101.667969 C 36.808594 101.667969 39.371094 102.691406 41.324219 104.542969 C 41.808594 105 42.253906 105.507812 42.640625 106.050781 C 42.832031 106.3125 43.007812 106.582031 43.171875 106.863281 C 43.460938 107.351562 43.296875 107.980469 42.808594 108.261719 C 42.640625 108.355469 42.464844 108.40625 42.289062 108.40625 Z M 42.289062 108.40625 " fill-opacity="1" fill-rule="nonzero"/><path fill="#ffffff" d="M 41.242188 79.992188 C 40.679688 79.992188 40.21875 79.53125 40.21875 78.964844 L 40.21875 50.726562 C 40.21875 50.164062 40.675781 49.703125 41.242188 49.703125 C 41.804688 49.703125 42.265625 50.160156 42.265625 50.726562 L 42.265625 78.964844 C 42.261719 79.53125 41.804688 79.992188 41.242188 79.992188 Z M 41.242188 79.992188 " fill-opacity="1" fill-rule="nonzero"/><path fill="#ffffff" d="M 54.558594 79.992188 C 53.996094 79.992188 53.535156 79.53125 53.535156 78.964844 L 53.535156 50.726562 C 53.535156 50.164062 53.992188 49.703125 54.558594 49.703125 C 55.121094 49.703125 55.582031 50.160156 55.582031 50.726562 L 55.582031 78.964844 C 55.582031 79.53125 55.121094 79.992188 54.558594 79.992188 Z M 54.558594 79.992188 " fill-opacity="1" fill-rule="nonzero"/><path fill="#ffffff" d="M 67.875 79.992188 C 67.3125 79.992188 66.851562 79.53125 66.851562 78.964844 L 66.851562 50.726562 C 66.851562 50.164062 67.308594 49.703125 67.875 49.703125 C 68.4375 49.703125 68.898438 50.160156 68.898438 50.726562 L 68.898438 78.964844 C 68.898438 79.53125 68.441406 79.992188 67.875 79.992188 Z M 67.875 79.992188 " fill-opacity="1" fill-rule="nonzero"/><path fill="#ffffff" d="M 81.195312 79.992188 C 80.632812 79.992188 80.171875 79.53125 80.171875 78.964844 L 80.171875 50.726562 C 80.171875 50.164062 80.628906 49.703125 81.195312 49.703125 C 81.757812 49.703125 82.21875 50.160156 82.21875 50.726562 L 82.21875 78.964844 C 82.21875 79.53125 81.757812 79.992188 81.195312 79.992188 Z M 81.195312 79.992188 " fill-opacity="1" fill-rule="nonzero"/><path fill="#ffffff" d="M 46.226562 21.34375 C 44.210938 21.34375 42.578125 19.707031 42.578125 17.691406 C 42.578125 15.679688 44.210938 14.042969 46.226562 14.042969 C 48.238281 14.042969 49.875 15.679688 49.875 17.691406 C 49.875 19.707031 48.238281 21.34375 46.226562 21.34375 Z M 46.226562 15.070312 C 44.777344 15.070312 43.601562 16.246094 43.601562 17.695312 C 43.601562 19.144531 44.777344 20.324219 46.226562 20.324219 C 47.671875 20.324219 48.851562 19.148438 48.851562 17.695312 C 48.851562 16.246094 47.675781 15.070312 46.226562 15.070312 Z M 46.226562 15.070312 " fill-opacity="1" fill-rule="nonzero"/><path fill="#ffffff" d="M 103.371094 34.90625 C 102 34.90625 100.882812 33.789062 100.882812 32.417969 C 100.882812 31.042969 102 29.925781 103.371094 29.925781 C 104.746094 29.925781 105.863281 31.042969 105.863281 32.417969 C 105.863281 33.789062 104.746094 34.90625 103.371094 34.90625 Z M 103.371094 30.953125 C 102.566406 30.953125 101.90625 31.609375 101.90625 32.417969 C 101.90625 33.222656 102.566406 33.878906 103.371094 33.878906 C 104.179688 33.878906 104.835938 33.222656 104.835938 32.417969 C 104.839844 31.609375 104.183594 30.953125 103.371094 30.953125 Z M 103.371094 30.953125 " fill-opacity="1" fill-rule="nonzero"/><path fill="#ffffff" d="M 106.945312 15.902344 C 105.570312 15.902344 104.457031 14.785156 104.457031 13.410156 C 104.457031 12.039062 105.570312 10.921875 106.945312 10.921875 C 108.320312 10.921875 109.433594 12.039062 109.433594 13.410156 C 109.433594 14.785156 108.316406 15.902344 106.945312 15.902344 Z M 106.945312 11.945312 C 106.136719 11.945312 105.480469 12.605469 105.480469 13.410156 C 105.480469 14.21875 106.136719 14.875 106.945312 14.875 C 107.753906 14.875 108.414062 14.21875 108.414062 13.410156 C 108.410156 12.605469 107.753906 11.945312 106.945312 11.945312 Z M 106.945312 11.945312 " fill-opacity="1" fill-rule="nonzero"/><path fill="#f4ce14" d="M 110.082031 66.238281 C 108.070312 66.238281 106.433594 64.601562 106.433594 62.589844 C 106.433594 60.574219 108.070312 58.941406 110.082031 58.941406 C 112.09375 58.941406 113.730469 60.574219 113.730469 62.589844 C 113.730469 64.601562 112.09375 66.238281 110.082031 66.238281 Z M 110.082031 59.964844 C 108.636719 59.964844 107.453125 61.140625 107.453125 62.589844 C 107.453125 64.035156 108.632812 65.214844 110.082031 65.214844 C 111.53125 65.214844 112.710938 64.039062 112.710938 62.589844 C 112.707031 61.140625 111.527344 59.964844 110.082031 59.964844 Z M 110.082031 59.964844 " fill-opacity="1" fill-rule="nonzero"/><path fill="#f4ce14" d="M 87.140625 16.601562 C 85.382812 16.601562 83.949219 15.171875 83.949219 13.410156 C 83.949219 11.652344 85.382812 10.21875 87.140625 10.21875 C 88.902344 10.21875 90.332031 11.652344 90.332031 13.410156 C 90.332031 15.171875 88.902344 16.601562 87.140625 16.601562 Z M 87.140625 11.246094 C 85.945312 11.246094 84.976562 12.214844 84.976562 13.410156 C 84.976562 14.609375 85.945312 15.578125 87.140625 15.578125 C 88.335938 15.578125 89.308594 14.609375 89.308594 13.410156 C 89.308594 12.21875 88.335938 11.246094 87.140625 11.246094 Z M 87.140625 11.246094 " fill-opacity="1" fill-rule="nonzero"/><path fill="#f4ce14" d="M 69.441406 28.632812 C 69.304688 28.632812 69.167969 28.578125 69.066406 28.46875 C 68.875 28.261719 68.886719 27.9375 69.09375 27.746094 L 74.617188 22.578125 C 74.824219 22.386719 75.148438 22.394531 75.339844 22.601562 C 75.53125 22.808594 75.523438 23.132812 75.316406 23.328125 L 69.789062 28.496094 C 69.691406 28.585938 69.570312 28.632812 69.441406 28.632812 Z M 69.441406 28.632812 " fill-opacity="1" fill-rule="nonzero"/><path fill="#f4ce14" d="M 74.96875 28.632812 C 74.835938 28.632812 74.703125 28.582031 74.601562 28.480469 L 69.078125 22.820312 C 68.882812 22.617188 68.886719 22.292969 69.085938 22.097656 C 69.289062 21.902344 69.613281 21.90625 69.808594 22.105469 L 75.332031 27.765625 C 75.53125 27.96875 75.527344 28.292969 75.324219 28.488281 C 75.226562 28.582031 75.097656 28.632812 74.96875 28.632812 Z M 74.96875 28.632812 " fill-opacity="1" fill-rule="nonzero"/><g clip-path="url(#2c761573e9)"><path fill="#f4ce14" d="M 121.855469 47.023438 L 122.359375 44.101562 L 120.238281 42.03125 L 123.167969 41.609375 L 124.480469 38.949219 L 125.792969 41.609375 L 128.726562 42.03125 L 126.605469 44.101562 L 127.105469 47.023438 L 124.480469 45.644531 Z M 124.480469 44.484375 L 125.746094 45.152344 L 125.507812 43.746094 L 126.527344 42.75 L 125.113281 42.542969 L 124.480469 41.261719 L 123.847656 42.542969 L 122.433594 42.75 L 123.457031 43.746094 L 123.214844 45.152344 Z M 124.480469 44.484375 " fill-opacity="1" fill-rule="nonzero"/></g><path fill="#f4ce14" d="M 70.5 8.125 L 67.875 6.746094 L 65.25 8.125 L 65.753906 5.203125 L 63.628906 3.132812 L 66.5625 2.707031 L 67.875 0.0507812 L 69.1875 2.707031 L 72.121094 3.132812 L 69.996094 5.203125 Z M 67.875 5.589844 L 69.140625 6.253906 L 68.898438 4.847656 L 69.921875 3.851562 L 68.507812 3.644531 L 67.875 2.367188 L 67.242188 3.644531 L 65.828125 3.851562 L 66.851562 4.847656 L 66.609375 6.253906 Z M 67.875 5.589844 " fill-opacity="1" fill-rule="nonzero"/><g fill="#ffffff" fill-opacity="1"><g transform="translate(118.467802, 74.05532)"><g><path d="M 15.109375 0.265625 C 12.578125 0.265625 10.253906 -0.320312 8.140625 -1.5 C 6.035156 -2.675781 4.363281 -4.316406 3.125 -6.421875 C 1.882812 -8.535156 1.265625 -10.910156 1.265625 -13.546875 C 1.265625 -16.171875 1.882812 -18.53125 3.125 -20.625 C 4.363281 -22.726562 6.035156 -24.367188 8.140625 -25.546875 C 10.253906 -26.722656 12.578125 -27.3125 15.109375 -27.3125 C 17.640625 -27.3125 19.957031 -26.722656 22.0625 -25.546875 C 24.175781 -24.367188 25.84375 -22.726562 27.0625 -20.625 C 28.28125 -18.53125 28.890625 -16.171875 28.890625 -13.546875 C 28.890625 -10.910156 28.273438 -8.535156 27.046875 -6.421875 C 25.816406 -4.316406 24.148438 -2.675781 22.046875 -1.5 C 19.953125 -0.320312 17.640625 0.265625 15.109375 0.265625 Z M 15.109375 -5.71875 C 17.253906 -5.71875 18.972656 -6.429688 20.265625 -7.859375 C 21.554688 -9.296875 22.203125 -11.191406 22.203125 -13.546875 C 22.203125 -15.921875 21.554688 -17.816406 20.265625 -19.234375 C 18.972656 -20.648438 17.253906 -21.359375 15.109375 -21.359375 C 12.941406 -21.359375 11.210938 -20.65625 9.921875 -19.25 C 8.628906 -17.84375 7.984375 -15.941406 7.984375 -13.546875 C 7.984375 -11.160156 8.628906 -9.257812 9.921875 -7.84375 C 11.210938 -6.425781 12.941406 -5.71875 15.109375 -5.71875 Z M 15.109375 -5.71875 "/></g></g></g><g fill="#ffffff" fill-opacity="1"><g transform="translate(148.618249, 74.05532)"><g><path d="M 26.46875 0 L 19.90625 0 L 8.9375 -16.609375 L 8.9375 0 L 2.375 0 L 2.375 -26.921875 L 8.9375 -26.921875 L 19.90625 -10.234375 L 19.90625 -26.921875 L 26.46875 -26.921875 Z M 26.46875 0 "/></g></g></g><g fill="#ffffff" fill-opacity="1"><g transform="translate(177.464474, 74.05532)"><g><path d="M 8.9375 -5.0625 L 17.53125 -5.0625 L 17.53125 0 L 2.375 0 L 2.375 -26.921875 L 8.9375 -26.921875 Z M 8.9375 -5.0625 "/></g></g></g><g fill="#ffffff" fill-opacity="1"><g transform="translate(195.761878, 74.05532)"><g><path d="M 8.9375 -26.921875 L 8.9375 0 L 2.375 0 L 2.375 -26.921875 Z M 8.9375 -26.921875 "/></g></g></g><g fill="#ffffff" fill-opacity="1"><g transform="translate(207.077881, 74.05532)"><g><path d="M 26.46875 0 L 19.90625 0 L 8.9375 -16.609375 L 8.9375 0 L 2.375 0 L 2.375 -26.921875 L 8.9375 -26.921875 L 19.90625 -10.234375 L 19.90625 -26.921875 L 26.46875 -26.921875 Z M 26.46875 0 "/></g></g></g><g fill="#ffffff" fill-opacity="1"><g transform="translate(235.924105, 74.05532)"><g><path d="M 8.9375 -21.671875 L 8.9375 -16.21875 L 17.71875 -16.21875 L 17.71875 -11.15625 L 8.9375 -11.15625 L 8.9375 -5.25 L 18.875 -5.25 L 18.875 0 L 2.375 0 L 2.375 -26.921875 L 18.875 -26.921875 L 18.875 -21.671875 Z M 8.9375 -21.671875 "/></g></g></g><g fill="#ffffff" fill-opacity="1"><g transform="translate(256.683442, 74.05532)"><g/></g></g><g fill="#ffffff" fill-opacity="1"><g transform="translate(123.610893, 98.304684)"><g><path d="M 7.015625 -2.109375 L 7.015625 0 L 0.921875 0 L 0.921875 -10.515625 L 7.015625 -10.515625 L 7.015625 -8.40625 L 3.25 -8.40625 L 3.25 -6.328125 L 6.859375 -6.328125 L 6.859375 -4.21875 L 3.25 -4.21875 L 3.25 -2.109375 Z M 7.015625 -2.109375 "/></g></g></g><g fill="#ffffff" fill-opacity="1"><g transform="translate(142.162237, 98.304684)"><g><path d="M 6.640625 -4.015625 L 5.3125 -7.75 L 3.984375 -4.015625 Z M 10.5625 0 L 8.078125 0 L 7.328125 -2.109375 L 3.328125 -2.109375 L 2.5625 0 L 0.078125 0 L 4.34375 -10.515625 L 6.3125 -10.515625 Z M 10.5625 0 "/></g></g></g><g fill="#ffffff" fill-opacity="1"><g transform="translate(163.418915, 98.304684)"><g><path d="M 5 -1.640625 C 5.25 -1.640625 5.519531 -1.675781 5.8125 -1.75 C 6.101562 -1.832031 6.351562 -1.960938 6.5625 -2.140625 C 6.769531 -2.316406 6.875 -2.5625 6.875 -2.875 C 6.875 -3.164062 6.765625 -3.394531 6.546875 -3.5625 C 6.328125 -3.738281 6.035156 -3.882812 5.671875 -4 C 5.304688 -4.113281 4.910156 -4.21875 4.484375 -4.3125 C 4.054688 -4.414062 3.625 -4.535156 3.1875 -4.671875 C 2.757812 -4.816406 2.363281 -5 2 -5.21875 C 1.644531 -5.445312 1.351562 -5.738281 1.125 -6.09375 C 0.90625 -6.457031 0.796875 -6.921875 0.796875 -7.484375 C 0.796875 -8.023438 0.910156 -8.492188 1.140625 -8.890625 C 1.367188 -9.285156 1.671875 -9.613281 2.046875 -9.875 C 2.421875 -10.144531 2.84375 -10.34375 3.3125 -10.46875 C 3.78125 -10.59375 4.253906 -10.65625 4.734375 -10.65625 C 5.453125 -10.65625 6.125 -10.539062 6.75 -10.3125 C 7.382812 -10.09375 7.898438 -9.738281 8.296875 -9.25 C 8.691406 -8.757812 8.898438 -8.113281 8.921875 -7.3125 L 6.671875 -7.3125 C 6.609375 -7.851562 6.414062 -8.226562 6.09375 -8.4375 C 5.78125 -8.65625 5.335938 -8.765625 4.765625 -8.765625 C 4.546875 -8.765625 4.3125 -8.726562 4.0625 -8.65625 C 3.820312 -8.582031 3.617188 -8.460938 3.453125 -8.296875 C 3.285156 -8.140625 3.203125 -7.929688 3.203125 -7.671875 C 3.203125 -7.398438 3.3125 -7.1875 3.53125 -7.03125 C 3.75 -6.875 4.035156 -6.742188 4.390625 -6.640625 C 4.753906 -6.535156 5.15625 -6.4375 5.59375 -6.34375 C 6.03125 -6.257812 6.460938 -6.148438 6.890625 -6.015625 C 7.316406 -5.878906 7.707031 -5.691406 8.0625 -5.453125 C 8.425781 -5.222656 8.71875 -4.921875 8.9375 -4.546875 C 9.15625 -4.179688 9.265625 -3.710938 9.265625 -3.140625 C 9.265625 -2.515625 9.140625 -1.984375 8.890625 -1.546875 C 8.648438 -1.117188 8.320312 -0.773438 7.90625 -0.515625 C 7.488281 -0.253906 7.019531 -0.0625 6.5 0.0625 C 5.976562 0.1875 5.453125 0.25 4.921875 0.25 C 4.140625 0.25 3.410156 0.117188 2.734375 -0.140625 C 2.066406 -0.410156 1.523438 -0.816406 1.109375 -1.359375 C 0.691406 -1.898438 0.476562 -2.601562 0.46875 -3.46875 L 2.8125 -3.46875 C 2.84375 -2.832031 3.070312 -2.367188 3.5 -2.078125 C 3.9375 -1.785156 4.4375 -1.640625 5 -1.640625 Z M 5 -1.640625 "/></g></g></g><g fill="#ffffff" fill-opacity="1"><g transform="translate(183.763504, 98.304684)"><g><path d="M 4 0 L 4 -5.015625 L 0.125 -10.515625 L 2.890625 -10.515625 L 5.15625 -6.875 L 7.4375 -10.515625 L 10.203125 -10.515625 L 6.328125 -5.015625 L 6.328125 0 Z M 4 0 "/></g></g></g><g fill="#ffffff" fill-opacity="1"><g transform="translate(204.695535, 98.304684)"><g/></g></g><g fill="#ffffff" fill-opacity="1"><g transform="translate(219.165692, 98.304684)"><g><path d="M 5 -1.640625 C 5.25 -1.640625 5.519531 -1.675781 5.8125 -1.75 C 6.101562 -1.832031 6.351562 -1.960938 6.5625 -2.140625 C 6.769531 -2.316406 6.875 -2.5625 6.875 -2.875 C 6.875 -3.164062 6.765625 -3.394531 6.546875 -3.5625 C 6.328125 -3.738281 6.035156 -3.882812 5.671875 -4 C 5.304688 -4.113281 4.910156 -4.21875 4.484375 -4.3125 C 4.054688 -4.414062 3.625 -4.535156 3.1875 -4.671875 C 2.757812 -4.816406 2.363281 -5 2 -5.21875 C 1.644531 -5.445312 1.351562 -5.738281 1.125 -6.09375 C 0.90625 -6.457031 0.796875 -6.921875 0.796875 -7.484375 C 0.796875 -8.023438 0.910156 -8.492188 1.140625 -8.890625 C 1.367188 -9.285156 1.671875 -9.613281 2.046875 -9.875 C 2.421875 -10.144531 2.84375 -10.34375 3.3125 -10.46875 C 3.78125 -10.59375 4.253906 -10.65625 4.734375 -10.65625 C 5.453125 -10.65625 6.125 -10.539062 6.75 -10.3125 C 7.382812 -10.09375 7.898438 -9.738281 8.296875 -9.25 C 8.691406 -8.757812 8.898438 -8.113281 8.921875 -7.3125 L 6.671875 -7.3125 C 6.609375 -7.851562 6.414062 -8.226562 6.09375 -8.4375 C 5.78125 -8.65625 5.335938 -8.765625 4.765625 -8.765625 C 4.546875 -8.765625 4.3125 -8.726562 4.0625 -8.65625 C 3.820312 -8.582031 3.617188 -8.460938 3.453125 -8.296875 C 3.285156 -8.140625 3.203125 -7.929688 3.203125 -7.671875 C 3.203125 -7.398438 3.3125 -7.1875 3.53125 -7.03125 C 3.75 -6.875 4.035156 -6.742188 4.390625 -6.640625 C 4.753906 -6.535156 5.15625 -6.4375 5.59375 -6.34375 C 6.03125 -6.257812 6.460938 -6.148438 6.890625 -6.015625 C 7.316406 -5.878906 7.707031 -5.691406 8.0625 -5.453125 C 8.425781 -5.222656 8.71875 -4.921875 8.9375 -4.546875 C 9.15625 -4.179688 9.265625 -3.710938 9.265625 -3.140625 C 9.265625 -2.515625 9.140625 -1.984375 8.890625 -1.546875 C 8.648438 -1.117188 8.320312 -0.773438 7.90625 -0.515625 C 7.488281 -0.253906 7.019531 -0.0625 6.5 0.0625 C 5.976562 0.1875 5.453125 0.25 4.921875 0.25 C 4.140625 0.25 3.410156 0.117188 2.734375 -0.140625 C 2.066406 -0.410156 1.523438 -0.816406 1.109375 -1.359375 C 0.691406 -1.898438 0.476562 -2.601562 0.46875 -3.46875 L 2.8125 -3.46875 C 2.84375 -2.832031 3.070312 -2.367188 3.5 -2.078125 C 3.9375 -1.785156 4.4375 -1.640625 5 -1.640625 Z M 5 -1.640625 "/></g></g></g><g fill="#ffffff" fill-opacity="1"><g transform="translate(239.510277, 98.304684)"><g><path d="M 9.046875 -5.265625 C 9.046875 -5.816406 8.898438 -6.328125 8.609375 -6.796875 C 8.316406 -7.265625 7.9375 -7.640625 7.46875 -7.921875 C 7 -8.210938 6.492188 -8.359375 5.953125 -8.359375 C 5.410156 -8.359375 4.898438 -8.210938 4.421875 -7.921875 C 3.953125 -7.640625 3.570312 -7.265625 3.28125 -6.796875 C 3 -6.328125 2.859375 -5.816406 2.859375 -5.265625 C 2.859375 -4.734375 3 -4.226562 3.28125 -3.75 C 3.570312 -3.28125 3.953125 -2.894531 4.421875 -2.59375 C 4.898438 -2.300781 5.410156 -2.15625 5.953125 -2.15625 C 6.492188 -2.15625 7 -2.300781 7.46875 -2.59375 C 7.9375 -2.894531 8.316406 -3.28125 8.609375 -3.75 C 8.898438 -4.226562 9.046875 -4.734375 9.046875 -5.265625 Z M 11.359375 -5.25 C 11.359375 -4.53125 11.210938 -3.84375 10.921875 -3.1875 C 10.640625 -2.53125 10.25 -1.953125 9.75 -1.453125 C 9.25 -0.953125 8.671875 -0.554688 8.015625 -0.265625 C 7.367188 0.015625 6.679688 0.15625 5.953125 0.15625 C 5.234375 0.15625 4.546875 0.015625 3.890625 -0.265625 C 3.234375 -0.554688 2.65625 -0.953125 2.15625 -1.453125 C 1.65625 -1.953125 1.257812 -2.53125 0.96875 -3.1875 C 0.6875 -3.84375 0.546875 -4.53125 0.546875 -5.25 C 0.546875 -5.976562 0.6875 -6.664062 0.96875 -7.3125 C 1.257812 -7.96875 1.65625 -8.546875 2.15625 -9.046875 C 2.65625 -9.546875 3.234375 -9.9375 3.890625 -10.21875 C 4.546875 -10.507812 5.234375 -10.65625 5.953125 -10.65625 C 6.679688 -10.65625 7.367188 -10.507812 8.015625 -10.21875 C 8.671875 -9.9375 9.25 -9.546875 9.75 -9.046875 C 10.25 -8.546875 10.640625 -7.96875 10.921875 -7.3125 C 11.210938 -6.664062 11.359375 -5.976562 11.359375 -5.25 Z M 11.359375 -5.25 "/></g></g></g><g fill="#ffffff" fill-opacity="1"><g transform="translate(262.019133, 98.304684)"><g><path d="M 0.921875 0 L 0.921875 -10.515625 L 3.25 -10.515625 L 3.25 -2.109375 L 7.015625 -2.109375 L 7.015625 0 Z M 0.921875 0 "/></g></g></g><g fill="#ffffff" fill-opacity="1"><g transform="translate(280.184011, 98.304684)"><g><path d="M 7.0625 -10.515625 L 9.375 -10.515625 L 9.375 -4.09375 C 9.375 -2.695312 8.992188 -1.640625 8.234375 -0.921875 C 7.472656 -0.203125 6.40625 0.15625 5.03125 0.15625 C 3.664062 0.15625 2.601562 -0.203125 1.84375 -0.921875 C 1.082031 -1.640625 0.703125 -2.695312 0.703125 -4.09375 L 0.703125 -10.515625 L 3.015625 -10.515625 L 3.015625 -4.4375 C 3.015625 -3.71875 3.15625 -3.15625 3.4375 -2.75 C 3.71875 -2.351562 4.25 -2.15625 5.03125 -2.15625 C 5.832031 -2.15625 6.367188 -2.351562 6.640625 -2.75 C 6.921875 -3.15625 7.0625 -3.71875 7.0625 -4.4375 Z M 7.0625 -10.515625 "/></g></g></g><g fill="#ffffff" fill-opacity="1"><g transform="translate(300.86871, 98.304684)"><g><path d="M 5.390625 -8.40625 L 5.390625 0 L 3.078125 0 L 3.078125 -8.40625 L 0.078125 -8.40625 L 0.078125 -10.515625 L 8.390625 -10.515625 L 8.390625 -8.40625 Z M 5.390625 -8.40625 "/></g></g></g><g fill="#ffffff" fill-opacity="1"><g transform="translate(319.945663, 98.304684)"><g><path d="M 3.25 0 L 0.921875 0 L 0.921875 -10.515625 L 3.25 -10.515625 Z M 3.25 0 "/></g></g></g><g fill="#ffffff" fill-opacity="1"><g transform="translate(334.724995, 98.304684)"><g><path d="M 9.046875 -5.265625 C 9.046875 -5.816406 8.898438 -6.328125 8.609375 -6.796875 C 8.316406 -7.265625 7.9375 -7.640625 7.46875 -7.921875 C 7 -8.210938 6.492188 -8.359375 5.953125 -8.359375 C 5.410156 -8.359375 4.898438 -8.210938 4.421875 -7.921875 C 3.953125 -7.640625 3.570312 -7.265625 3.28125 -6.796875 C 3 -6.328125 2.859375 -5.816406 2.859375 -5.265625 C 2.859375 -4.734375 3 -4.226562 3.28125 -3.75 C 3.570312 -3.28125 3.953125 -2.894531 4.421875 -2.59375 C 4.898438 -2.300781 5.410156 -2.15625 5.953125 -2.15625 C 6.492188 -2.15625 7 -2.300781 7.46875 -2.59375 C 7.9375 -2.894531 8.316406 -3.28125 8.609375 -3.75 C 8.898438 -4.226562 9.046875 -4.734375 9.046875 -5.265625 Z M 11.359375 -5.25 C 11.359375 -4.53125 11.210938 -3.84375 10.921875 -3.1875 C 10.640625 -2.53125 10.25 -1.953125 9.75 -1.453125 C 9.25 -0.953125 8.671875 -0.554688 8.015625 -0.265625 C 7.367188 0.015625 6.679688 0.15625 5.953125 0.15625 C 5.234375 0.15625 4.546875 0.015625 3.890625 -0.265625 C 3.234375 -0.554688 2.65625 -0.953125 2.15625 -1.453125 C 1.65625 -1.953125 1.257812 -2.53125 0.96875 -3.1875 C 0.6875 -3.84375 0.546875 -4.53125 0.546875 -5.25 C 0.546875 -5.976562 0.6875 -6.664062 0.96875 -7.3125 C 1.257812 -7.96875 1.65625 -8.546875 2.15625 -9.046875 C 2.65625 -9.546875 3.234375 -9.9375 3.890625 -10.21875 C 4.546875 -10.507812 5.234375 -10.65625 5.953125 -10.65625 C 6.679688 -10.65625 7.367188 -10.507812 8.015625 -10.21875 C 8.671875 -9.9375 9.25 -9.546875 9.75 -9.046875 C 10.25 -8.546875 10.640625 -7.96875 10.921875 -7.3125 C 11.210938 -6.664062 11.359375 -5.976562 11.359375 -5.25 Z M 11.359375 -5.25 "/></g></g></g><g fill="#ffffff" fill-opacity="1"><g transform="translate(357.233859, 98.304684)"><g><path d="M 9.171875 0 L 6.859375 0 L 3.25 -6.546875 L 3.25 0 L 0.921875 0 L 0.921875 -10.515625 L 3.25 -10.515625 L 6.859375 -3.953125 L 6.859375 -10.515625 L 9.171875 -10.515625 Z M 9.171875 0 "/></g></g></g><g clip-path="url(#f00ed2f6e7)"><path stroke-linecap="butt" transform="matrix(1.273774, 0, 0, 1.273774, 262.608326, 35.001011)" fill="none" stroke-linejoin="miter" d="M 9.516715 31.21182 C 7.971111 31.21182 6.584974 30.963419 5.361371 30.463551 C 4.134701 29.95755 3.153365 29.212348 2.42043 28.227946 C 1.687495 27.243543 1.30416 26.059807 1.264294 24.676737 L 6.750575 24.676737 C 6.830308 25.461805 7.097109 26.059807 7.560177 26.470741 C 8.020178 26.881676 8.624313 27.087143 9.369515 27.087143 C 10.133117 27.087143 10.737251 26.912342 11.178853 26.559675 C 11.617387 26.207007 11.838188 25.716339 11.838188 25.093804 C 11.838188 24.575536 11.663387 24.143135 11.31072 23.799668 C 10.958052 23.459267 10.522584 23.177133 10.007383 22.956332 C 9.498315 22.735532 8.771513 22.484064 7.830044 22.204997 C 6.462307 21.784862 5.349104 21.361661 4.484302 20.941527 C 3.622566 20.518326 2.880431 19.895791 2.257896 19.073922 C 1.635361 18.248987 1.322561 17.17565 1.322561 15.850847 C 1.322561 13.882042 2.037096 12.339505 3.463099 11.226302 C 4.889103 10.113099 6.747508 9.558031 9.038314 9.558031 C 11.36592 9.558031 13.242725 10.113099 14.671795 11.226302 C 16.097799 12.339505 16.858334 13.891242 16.956468 15.881514 L 11.38432 15.881514 C 11.344453 15.200712 11.092986 14.664044 10.632985 14.27151 C 10.172983 13.878975 9.578048 13.682708 8.854313 13.682708 C 8.231778 13.682708 7.728844 13.848309 7.345509 14.182576 C 6.968308 14.51071 6.781241 14.986045 6.781241 15.60858 C 6.781241 16.289382 7.100175 16.822983 7.744177 17.206317 C 8.385112 17.586585 9.387915 17.997519 10.749518 18.43912 C 12.117255 18.902188 13.230458 19.340723 14.082993 19.763924 C 14.935529 20.184058 15.671531 20.797393 16.294066 21.600862 C 16.916601 22.407397 17.229402 23.440867 17.229402 24.704337 C 17.229402 25.912606 16.922734 27.007409 16.309399 27.991812 C 15.696064 28.973148 14.806729 29.75515 13.641392 30.337818 C 12.479123 30.920486 11.105252 31.21182 9.516715 31.21182 Z M 38.696124 9.858565 L 38.696124 31.000219 L 33.547177 31.000219 L 33.547177 22.29393 L 25.533956 22.29393 L 25.533956 31.000219 L 20.38501 31.000219 L 20.38501 9.858565 L 25.533956 9.858565 L 25.533956 18.138586 L 33.547177 18.138586 L 33.547177 9.858565 Z M 52.394959 31.21182 C 50.404687 31.21182 48.583082 30.751819 46.924011 29.831816 C 45.268007 28.905681 43.952404 27.611544 42.977201 25.95554 C 42.005065 24.299536 41.520531 22.434997 41.520531 20.368059 C 41.520531 18.298053 42.005065 16.439649 42.977201 14.792844 C 43.952404 13.14604 45.268007 11.861103 46.924011 10.941101 C 48.583082 10.018032 50.404687 9.558031 52.394959 9.558031 C 54.382164 9.558031 56.203769 10.018032 57.859773 10.941101 C 59.515777 11.861103 60.819114 13.14604 61.77285 14.792844 C 62.726586 16.439649 63.204987 18.298053 63.204987 20.368059 C 63.204987 22.434997 62.723519 24.299536 61.757516 25.95554 C 60.794581 27.611544 59.491244 28.905681 57.84444 29.831816 C 56.197635 30.751819 54.382164 31.21182 52.394959 31.21182 Z M 52.394959 26.513675 C 54.08163 26.513675 55.434033 25.952473 56.449103 24.83007 C 57.461105 23.701534 57.970173 22.214197 57.970173 20.368059 C 57.970173 18.500454 57.461105 17.01005 56.449103 15.896847 C 55.434033 14.783644 54.08163 14.22551 52.394959 14.22551 C 50.689888 14.22551 49.328284 14.777511 48.313215 15.881514 C 47.301212 16.985517 46.792144 18.478987 46.792144 20.368059 C 46.792144 22.235664 47.301212 23.726067 48.313215 24.845404 C 49.328284 25.958606 50.689888 26.513675 52.394959 26.513675 Z M 82.172369 16.660449 C 82.172369 17.887119 81.890235 19.006455 81.325967 20.021525 C 80.767832 21.036594 79.906097 21.855396 78.737693 22.477931 C 77.575424 23.100466 76.134087 23.4102 74.407549 23.4102 L 71.209007 23.4102 L 71.209007 31.000219 L 66.060061 31.000219 L 66.060061 9.858565 L 74.407549 9.858565 C 76.09422 9.858565 77.517157 10.149899 78.679427 10.732567 C 79.84783 11.312169 80.718765 12.112571 81.298367 13.13684 C 81.881035 14.164176 82.172369 15.335646 82.172369 16.660449 Z M 74.008881 19.316189 C 74.996351 19.316189 75.729286 19.086189 76.207687 18.623121 C 76.695288 18.156986 76.937556 17.503785 76.937556 16.660449 C 76.937556 15.817114 76.695288 15.163912 76.207687 14.703911 C 75.729286 14.24391 74.996351 14.013909 74.008881 14.013909 L 71.209007 14.013909 L 71.209007 19.316189 Z M 74.008881 19.316189 " stroke="#ffffff" stroke-width="2.861419" stroke-opacity="1" stroke-miterlimit="4"/></g><g fill="#f4ce14" fill-opacity="1"><g transform="translate(262.608326, 74.488002)"><g><path d="M 12.125 0.265625 C 10.15625 0.265625 8.390625 -0.0507812 6.828125 -0.6875 C 5.265625 -1.332031 4.015625 -2.28125 3.078125 -3.53125 C 2.148438 -4.78125 1.660156 -6.289062 1.609375 -8.0625 L 8.59375 -8.0625 C 8.695312 -7.0625 9.039062 -6.296875 9.625 -5.765625 C 10.21875 -5.242188 10.988281 -4.984375 11.9375 -4.984375 C 12.90625 -4.984375 13.671875 -5.207031 14.234375 -5.65625 C 14.796875 -6.101562 15.078125 -6.722656 15.078125 -7.515625 C 15.078125 -8.179688 14.851562 -8.726562 14.40625 -9.15625 C 13.957031 -9.59375 13.40625 -9.953125 12.75 -10.234375 C 12.101562 -10.515625 11.175781 -10.835938 9.96875 -11.203125 C 8.226562 -11.734375 6.804688 -12.269531 5.703125 -12.8125 C 4.609375 -13.351562 3.664062 -14.144531 2.875 -15.1875 C 2.082031 -16.238281 1.6875 -17.609375 1.6875 -19.296875 C 1.6875 -21.796875 2.59375 -23.753906 4.40625 -25.171875 C 6.226562 -26.597656 8.597656 -27.3125 11.515625 -27.3125 C 14.472656 -27.3125 16.859375 -26.597656 18.671875 -25.171875 C 20.492188 -23.753906 21.46875 -21.78125 21.59375 -19.25 L 14.5 -19.25 C 14.445312 -20.125 14.125 -20.8125 13.53125 -21.3125 C 12.945312 -21.8125 12.195312 -22.0625 11.28125 -22.0625 C 10.488281 -22.0625 9.847656 -21.847656 9.359375 -21.421875 C 8.867188 -21.003906 8.625 -20.398438 8.625 -19.609375 C 8.625 -18.734375 9.03125 -18.050781 9.84375 -17.5625 C 10.664062 -17.082031 11.945312 -16.5625 13.6875 -16 C 15.425781 -15.40625 16.835938 -14.835938 17.921875 -14.296875 C 19.015625 -13.765625 19.957031 -12.988281 20.75 -11.96875 C 21.539062 -10.945312 21.9375 -9.628906 21.9375 -8.015625 C 21.9375 -6.484375 21.546875 -5.085938 20.765625 -3.828125 C 19.992188 -2.578125 18.863281 -1.582031 17.375 -0.84375 C 15.894531 -0.101562 14.144531 0.265625 12.125 0.265625 Z M 12.125 0.265625 "/></g></g></g><g fill="#f4ce14" fill-opacity="1"><g transform="translate(286.195164, 74.488002)"><g><path d="M 25.703125 -26.921875 L 25.703125 0 L 19.140625 0 L 19.140625 -11.078125 L 8.9375 -11.078125 L 8.9375 0 L 2.375 0 L 2.375 -26.921875 L 8.9375 -26.921875 L 8.9375 -16.375 L 19.140625 -16.375 L 19.140625 -26.921875 Z M 25.703125 -26.921875 "/></g></g></g><g fill="#f4ce14" fill-opacity="1"><g transform="translate(314.2309, 74.488002)"><g><path d="M 15.109375 0.265625 C 12.578125 0.265625 10.253906 -0.320312 8.140625 -1.5 C 6.035156 -2.675781 4.363281 -4.316406 3.125 -6.421875 C 1.882812 -8.535156 1.265625 -10.910156 1.265625 -13.546875 C 1.265625 -16.171875 1.882812 -18.53125 3.125 -20.625 C 4.363281 -22.726562 6.035156 -24.367188 8.140625 -25.546875 C 10.253906 -26.722656 12.578125 -27.3125 15.109375 -27.3125 C 17.640625 -27.3125 19.957031 -26.722656 22.0625 -25.546875 C 24.175781 -24.367188 25.84375 -22.726562 27.0625 -20.625 C 28.28125 -18.53125 28.890625 -16.171875 28.890625 -13.546875 C 28.890625 -10.910156 28.273438 -8.535156 27.046875 -6.421875 C 25.816406 -4.316406 24.148438 -2.675781 22.046875 -1.5 C 19.953125 -0.320312 17.640625 0.265625 15.109375 0.265625 Z M 15.109375 -5.71875 C 17.253906 -5.71875 18.972656 -6.429688 20.265625 -7.859375 C 21.554688 -9.296875 22.203125 -11.191406 22.203125 -13.546875 C 22.203125 -15.921875 21.554688 -17.816406 20.265625 -19.234375 C 18.972656 -20.648438 17.253906 -21.359375 15.109375 -21.359375 C 12.941406 -21.359375 11.210938 -20.65625 9.921875 -19.25 C 8.628906 -17.84375 7.984375 -15.941406 7.984375 -13.546875 C 7.984375 -11.160156 8.628906 -9.257812 9.921875 -7.84375 C 11.210938 -6.425781 12.941406 -5.71875 15.109375 -5.71875 Z M 15.109375 -5.71875 "/></g></g></g><g fill="#f4ce14" fill-opacity="1"><g transform="translate(344.376033, 74.488002)"><g><path d="M 22.90625 -18.265625 C 22.90625 -16.703125 22.546875 -15.273438 21.828125 -13.984375 C 21.109375 -12.691406 20.003906 -11.648438 18.515625 -10.859375 C 17.035156 -10.066406 15.195312 -9.671875 13 -9.671875 L 8.9375 -9.671875 L 8.9375 0 L 2.375 0 L 2.375 -26.921875 L 13 -26.921875 C 15.144531 -26.921875 16.957031 -26.550781 18.4375 -25.8125 C 19.925781 -25.070312 21.039062 -24.050781 21.78125 -22.75 C 22.53125 -21.445312 22.90625 -19.953125 22.90625 -18.265625 Z M 12.5 -14.890625 C 13.757812 -14.890625 14.691406 -15.179688 15.296875 -15.765625 C 15.910156 -16.347656 16.21875 -17.179688 16.21875 -18.265625 C 16.21875 -19.335938 15.910156 -20.164062 15.296875 -20.75 C 14.691406 -21.34375 13.757812 -21.640625 12.5 -21.640625 L 8.9375 -21.640625 L 8.9375 -14.890625 Z M 12.5 -14.890625 "/></g></g></g></svg>